<svg xmlns="http://www.w3.org/2000/svg" viewBox="0 0 892.91 584.158"><path fill="#3f3d56" d="M887 583.158H0v-2h887a1 1 0 1 1 0 2ZM218.965 581.158h-55.572c-8.306 0-15.063-6.757-15.063-15.064V402.982c0-8.307 6.757-15.064 15.063-15.064h55.572c8.305 0 15.063 6.757 15.063 15.064v163.112c0 8.307-6.758 15.064-15.063 15.064Z"/><path fill="#3f3d56" d="M763.398 581.478h-55.571c-8.306 0-15.063-6.758-15.063-15.064V403.3c0-8.306 6.757-15.064 15.063-15.064h55.571c8.306 0 15.064 6.758 15.064 15.064v163.113c0 8.306-6.758 15.064-15.064 15.064Z"/><path fill="#6c63ff" d="m232.139 175.857-81.833 116.226a64.84 64.84 0 0 0-10.888 48.296l24.87 144.9c5.343 31.122 32.328 53.87 63.905 53.87H709.07c34.271 0 62.624-26.67 64.718-60.877l9.598-156.767a64.84 64.84 0 0 0-19.12-50.059L649.48 157.901a64.84 64.84 0 0 0-47.467-18.716l-318.725 9.187a64.84 64.84 0 0 0-51.148 27.485Z"/><path fill="#fff" d="m244.604 196.49-15.647 29.256c-9.97 18.642 4.567 40.658 26.685 40.412l391.727-4.351c24.062-.267 37.613-26.203 23.223-44.445l-24.666-31.266c-5.688-7.21-14.707-11.387-24.217-11.215l-351.415 6.361c-10.896.197-20.778 6.063-25.69 15.248Z"/><path fill="#6c63ff" d="M734.955 257.541c-2.531 0-4.996-.938-6.89-2.652a10.28 10.28 0 0 1-3.375-7.607l.001-6.431 1.29-29.638a10.24 10.24 0 0 1 10.25-9.814h40.78c3.796 0 7.265 2.08 9.053 5.431l4.86 9.111a10.175 10.175 0 0 1 .235 9.184 10.165 10.165 0 0 1-7.21 5.691l-30.745 6.362a8.537 8.537 0 0 0-6.539 6.146l-1.815 6.657c-1.111 4.071-4.68 7.09-8.879 7.51-.339.034-.678.05-1.016.05ZM184.099 257.49c-4.2-.42-7.768-3.438-8.879-7.509l-1.815-6.657a8.537 8.537 0 0 0-6.539-6.146l-30.744-6.362a10.165 10.165 0 0 1-7.211-5.69 10.175 10.175 0 0 1 .236-9.185l4.859-9.11a10.243 10.243 0 0 1 9.054-5.432h40.78a10.24 10.24 0 0 1 10.25 9.814l1.289 29.638v6.43a10.28 10.28 0 0 1-3.375 7.608 10.278 10.278 0 0 1-7.905 2.601Z"/><circle cx="240.749" cy="344.228" r="40.328" fill="#fff" transform="rotate(-80.783 240.75 344.228)"/><circle cx="705.366" cy="345.069" r="40.328" fill="#fff"/><path fill="#9f616a" d="M187.068 128.777a26.65 26.65 0 0 1 9.221 8.568l26.481 15.746 44.994 21.075s10.611-37.721 23.288-40.13c12.678-2.41 33.593 25.546 33.593 25.546s-36.46 59.034-52.341 52.981c-15.882-6.053-51.368-35.449-51.368-35.449l-4.635-3.767-29.483-19.613a26.654 26.654 0 0 1-12.031-3.711c-9.221-5.327-13.947-14.403-10.556-20.27 3.391-5.869 13.613-6.306 22.837-.976Z"/><path fill="#e5e5e5" d="m274.768 145.15 23.01-27.088 13.9 2.003c17.05 2.456 26.53 21.054 18.498 36.294l-8.01 15.197-47.398-26.407Z"/><path fill="#3f3d56" d="m199.948 180.612-40.498-55.828c-.6-.825-.454-1.98.333-2.63l9.715-8.022a1.937 1.937 0 0 1 2.843.42l40.238 60.389c.331.495.415 1.105.23 1.673a1.928 1.928 0 0 1-1.175 1.219l-9.454 3.46a1.945 1.945 0 0 1-2.232-.68Z"/><path fill="#e5e5e5" d="m203.167 177.2-41.913-54.329c-.622-.802-.579-1.847.097-2.378l8.334-6.56c.362-.284.86-.38 1.365-.263.506.117.979.435 1.297.876l42.039 58.48c.346.48.473 1.044.348 1.548a1.386 1.386 0 0 1-.99 1.02l-8.459 2.407c-.621.177-1.352-.042-1.878-.538a2.23 2.23 0 0 1-.24-.264Z"/><path fill="#9f616a" d="m186.444 516.902-18.224 39.326-29.734-13.428 23.02-29.734 24.938 3.836z"/><path fill="#2f2e41" d="m155.75 543.759 22.061-2.878s15.347 36.448 3.837 38.367-101.67 10.55-101.67-.96 37.406-25.897 37.406-25.897l25.898-18.224 12.469 9.592ZM329.358 263.685s26.856 40.284-30.693 65.223l-61.386 88.242-50.835 110.303-30.693-11.51 53.712-166.893 30.693-74.814 14.388-23.02 74.814 12.469Z"/><path fill="#9f616a" d="m173.021 510.299-20.749 38.054-28.795-15.338 24.909-28.17 24.635 5.454z"/><path fill="#2f2e41" d="m140.643 535.098 22.2-1.434s12.939 37.371 1.328 38.535-102.142 3.9-101.392-7.585 39.016-23.404 39.016-23.404l27.03-16.496 11.817 10.384ZM332.14 266.937s24.172 41.95-34.88 63.083l-67.009 84.053-57.918 106.754-29.877-13.486 64.478-163.037 35.505-72.654 15.858-22.033 73.842 17.32Z"/><g fill="#9f616a"><path d="m307.91 78.37-18.228 35.707 48.489 7.544-.528-48.008-29.733 4.757z"/><circle cx="318.031" cy="59.266" r="33.753"/></g><path fill="#e5e5e5" d="m339.909 275.195 5.566-90.17a113.326 113.326 0 0 0-4.613-64.785l-1.912-21.53-44.122 2.877-18.703 30.214-17.745 71.457-3.836 47.958 85.365 23.979Z"/><path fill="#9f616a" d="M210.795 205.426a26.65 26.65 0 0 1 12.526 1.238l30.61-3.496 48.57-10.46s-14.387-36.449-5.754-46.04 42.203 0 42.203 0 6.714 69.059-9.592 73.855c-16.306 4.796-62.345 2.877-62.345 2.877l-5.97-.192-35.34 2.235a26.654 26.654 0 0 1-11.823 4.329c-10.565 1.341-19.82-3.022-20.673-9.745-.853-6.724 7.02-13.26 17.588-14.6Z"/><path fill="#e5e5e5" d="m290.512 165.371 1.919-35.489 12.276-6.82c15.06-8.366 33.862.7 36.694 17.692l2.824 16.944-53.713 7.673Z"/><path fill="#3f3d56" d="M344.347 80.011s3.147-15.737-6.295-16.786-18.885-19.934-18.885-19.934-32.581-5.683-33.63 7.956c-1.05 13.639-.648 10.608-.648 10.608s-7.746-3.264-4.598-16.903c.899-3.897 3.083-7.451 5.744-10.54 8.553-9.93 21.692-14.62 34.71-13.119 5.514.636 21.928 5.868 25.1 9.436 8.392 9.442 12.14 38.79-1.498 49.282ZM233.066 480.151c-5.92 0-11.144-3.097-13.986-8.3-2.858-5.23-2.625-11.336.623-16.334l.483.313-.483-.313 10.527-16.196a15.891 15.891 0 0 1 13.37-7.255h457.877c4.668 0 9.086 2.035 12.12 5.583l11.552 13.512c4.08 4.773 4.992 11.284 2.381 16.994-2.611 5.71-8.133 9.278-14.411 9.313l-479.957 2.683h-.096Z"/><path fill="#ffb5b5" d="M780.887 284.63c8.423 5.508 18.093 5.628 21.598.267s-.482-14.172-8.909-19.681a25.188 25.188 0 0 0-11.157-4.129l-35.984-22.891-10.382 17.115 36.576 20.75a25.19 25.19 0 0 0 8.258 8.568Z"/><path fill="#e5e5e5" d="m678.54 228.218 88.28 45.628 7.68-21.12-59.88-46.905-3.986-68.43a27.334 27.334 0 0 0-11.498-20.783c-6.82-4.85-15.35-6.323-23.404-4.043-14.337 4.062-22.885 19.083-19.053 33.483l21.862 82.17Z"/><path fill="#ffb5b5" d="m699.865 105.768 4.127-25.797-27.86-11.35-4.128 39.211 27.861-2.064z"/><path fill="#2f2e41" d="M612.13 252.556s-7.999 49.989 23.994 55.987 104.977 9.998 104.977 9.998l93.979 113.975 18.996-20.995-80.982-124.973-64.986-40.99-95.979 6.998Z"/><path fill="#2f2e41" d="M619.765 244.463s-18.653 47.064 11.277 59.86c29.93 12.797 100.307 32.534 100.307 32.534l67.014 131.65 23.099-16.375-51.941-139.565-54.545-54.113-95.211-13.99Z"/><path fill="#e5e5e5" d="m705.109 101.59-35.992-6-24.394 13.579C630.525 129.82 629.35 195.322 626 220.159l-19.87 46.394 62.987-8.998 50.988-5L703.11 141.58l2-39.99Z"/><circle cx="692.824" cy="59.853" r="28.411" fill="#ffb5b5"/><path fill="#2f2e41" d="M690.557 21.656c.822.48 1.923-.246 2.187-1.16s-.044-1.886-.348-2.788l-1.533-4.54c-1.087-3.22-2.241-6.553-4.596-9.004-3.554-3.7-9.202-4.64-14.286-3.959-6.53.876-12.971 4.411-16.007 10.258-3.036 5.846-1.743 14.004 3.742 17.651-7.818 8.961-10.543 18.948-10.113 30.832s13.381 22.822 21.827 31.194c1.886-1.143 3.601-6.501 2.564-8.448s.449-4.201-.836-5.994c-1.284-1.793-2.359 1.062-1.06-.721.82-1.125-2.38-3.713-1.161-4.386 5.891-3.257 7.85-10.6 11.551-16.224 4.463-6.783 12.102-11.376 20.186-12.139 4.453-.42 9.157.341 12.807 2.926s6.013 7.205 5.166 11.597c2.192-2.225 3.284-5.487 2.872-8.584s-2.317-5.96-5.014-7.536c1.64-5.424.235-11.663-3.572-15.86s-19.249-3.482-24.806-2.377"/><path fill="#2f2e41" d="M689.694 42.393c-7.361.795-12.676 7.17-17.164 13.059-2.586 3.394-5.296 7.142-5.23 11.409.065 4.313 2.95 8.013 4.328 12.101 2.253 6.683.057 14.633-5.307 19.212 5.3 1.005 11.029-2.968 11.944-8.284 1.065-6.189-3.626-12.161-3.07-18.416.489-5.51 4.831-9.752 8.523-13.872 3.692-4.12 7.159-9.587 5.46-14.852"/><path fill="#ffb5b5" d="M758.306 289.973c8.423 5.51 18.093 5.629 21.599.267s-.483-14.17-8.91-19.68a25.188 25.188 0 0 0-11.156-4.129l-35.985-22.891-10.382 17.115 36.576 20.75a25.19 25.19 0 0 0 8.258 8.568Z"/><path fill="#e5e5e5" d="m655.96 233.562 88.28 45.628 7.68-21.12-59.88-46.905-3.986-68.43a27.334 27.334 0 0 0-11.498-20.783c-6.82-4.85-15.35-6.324-23.405-4.043-14.337 4.062-22.884 19.083-19.052 33.483l21.861 82.17Z"/><path fill="#2f2e41" d="m801.544 450.844 2.043 1.168s13.997-7.999 20.995 0 11.998 27.993 11.998 27.993S865.573 504 848.577 504c-12.794 0-43.15-14.163-57.38-21.166a9.865 9.865 0 0 1-4.89-12.292c1.473-3.954 3.378-8.104 5.282-9.532 2-1.5 3.25-4.75 4-7.624.679-2.604 3.618-3.877 5.955-2.542ZM840.535 412.852l2.043 1.168s13.997-7.998 20.996 0 11.997 27.994 11.997 27.994 28.993 23.994 11.997 23.994c-12.794 0-43.15-14.163-57.379-21.166a9.865 9.865 0 0 1-4.89-12.291c1.473-3.955 3.377-8.105 5.282-9.533 2-1.5 3.25-4.749 3.999-7.623.68-2.605 3.618-3.878 5.955-2.543Z"/></svg>